<svg width="44" height="44" viewBox="0 0 44 44" fill="none" xmlns="http://www.w3.org/2000/svg">
<path d="M20.3333 15.3333L13.6667 22M13.6667 22L20.3333 28.6667M13.6667 22H30.3333M42 22C42 24.6264 41.4827 27.2272 40.4776 29.6537C39.4725 32.0802 37.9993 34.285 36.1421 36.1421C34.285 37.9993 32.0802 39.4725 29.6537 40.4776C27.2272 41.4827 24.6264 42 22 42C19.3736 42 16.7728 41.4827 14.3463 40.4776C11.9198 39.4725 9.71504 37.9993 7.85786 36.1421C6.00069 34.285 4.5275 32.0802 3.52241 29.6537C2.51732 27.2272 2 24.6264 2 22C2 16.6957 4.10714 11.6086 7.85786 7.85786C11.6086 4.10714 16.6957 2 22 2C27.3043 2 32.3914 4.10714 36.1421 7.85786C39.8929 11.6086 42 16.6957 42 22Z" stroke="#213D62" stroke-width="4" stroke-linecap="round" stroke-linejoin="round"/>
</svg>
