<svg width="33" height="32" viewBox="0 0 33 32" fill="none" xmlns="http://www.w3.org/2000/svg">
<path d="M17.514 20.6667L22.2876 16M22.2876 16L17.514 11.3333M22.2876 16H10.3537M30.6413 16C30.6413 17.8385 30.2708 19.659 29.5512 21.3576C28.8315 23.0561 27.7766 24.5995 26.4468 25.8995C25.117 27.1995 23.5384 28.2307 21.8009 28.9343C20.0634 29.6379 18.2012 30 16.3206 30C14.44 30 12.5778 29.6379 10.8404 28.9343C9.1029 28.2307 7.52421 27.1995 6.19441 25.8995C4.86462 24.5995 3.80977 23.0561 3.09009 21.3576C2.37041 19.659 2 17.8385 2 16C2 12.287 3.50878 8.72601 6.19441 6.10051C8.88005 3.475 12.5226 2 16.3206 2C20.1187 2 23.7612 3.475 26.4468 6.10051C29.1325 8.72601 30.6413 12.287 30.6413 16Z" stroke="#213D62" stroke-width="3" stroke-linecap="round" stroke-linejoin="round"/>
</svg>
